<?xml version="1.0" encoding="UTF-8"?>
<svg id="Layer_1" data-name="Layer 1" xmlns="http://www.w3.org/2000/svg" width="103" height="58" xmlns:xlink="http://www.w3.org/1999/xlink" viewBox="0 0 103 58">
  <defs>
    <linearGradient id="linear-gradient" x1="7.55" y1="20.02" x2="88.33" y2="1.42" gradientUnits="userSpaceOnUse">
      <stop offset="0" stop-color="#e56257"/>
      <stop offset="1" stop-color="#fbd017"/>
    </linearGradient>
    <linearGradient id="linear-gradient-2" x1="8.68" y1="24.9" x2="89.46" y2="6.31" xlink:href="#linear-gradient"/>
    <linearGradient id="linear-gradient-3" x1="9.52" y1="28.55" x2="90.3" y2="9.95" xlink:href="#linear-gradient"/>
    <linearGradient id="linear-gradient-4" x1="10.8" y1="34.13" x2="91.58" y2="15.54" xlink:href="#linear-gradient"/>
  </defs>
  <g>
    <path d="M96.77,47.99c0,.39-.3.7-.7.7s-.71-.3-.71-.69.31-.69.71-.69.71.3.71.68ZM95.53,47.99c0,.31.23.55.54.55s.52-.25.52-.55-.23-.55-.53-.55-.53.25-.53.55ZM95.95,48.35h-.16s0-.69,0-.69c.06-.01.15-.02.26-.02.13,0,.19.02.24.05.04.03.07.08.07.15,0,.08-.06.13-.14.16h0c.07.03.11.08.13.18.02.1.03.15.05.17h-.17s-.03-.09-.06-.17c-.01-.08-.06-.11-.14-.11h-.08s0,.28,0,.28ZM95.96,47.96h.08c.09,0,.16-.03.16-.1,0-.06-.05-.1-.15-.1-.04,0-.07,0-.09,0v.2Z" style="fill: #fff;"/>
    <path d="M17.96,48.71h3.22s-.02-11.4-.02-11.4h-3.22s.02,11.4.02,11.4ZM19.56,32.25c-.99,0-1.76.82-1.76,1.72,0,.97.78,1.76,1.77,1.76s1.72-.8,1.72-1.77c0-.9-.77-1.72-1.72-1.72ZM30.11,37.02c-1.48,0-2.76.66-3.44,1.7v-1.43s-3.22,0-3.22,0l.02,11.4h3.22s-.01-6.76-.01-6.76c0-1.24,1.05-2.2,2.4-2.2s2.16.97,2.17,2.38v6.57s3.12,0,3.12,0v-7.25c-.02-2.58-1.79-4.4-4.26-4.4ZM41.62,37c-3.33,0-5.86,2.5-5.85,5.94s2.66,5.99,6.05,5.99c1.68,0,3.64-.71,4.65-1.77l-2.05-2.09c-.62.6-1.72,1.02-2.62,1.02-1.35,0-2.34-.83-2.72-2.07l8.22-.02c0-4.3-2.11-7.01-5.68-7ZM39.11,41.7c.42-1.15,1.43-1.85,2.64-1.86,1.3,0,2.14.72,2.45,1.85h-5.09ZM44.36,33.26h-3.22s-1.2,2.46-1.2,2.46h3.22s1.2-2.46,1.2-2.46ZM83.28,32.14c-.99,0-1.76.82-1.76,1.72,0,.97.78,1.76,1.77,1.76s1.72-.8,1.72-1.77c0-.9-.77-1.72-1.72-1.72ZM81.68,48.59h3.22s-.02-11.4-.02-11.4h-3.22s.02,11.4.02,11.4ZM91.78,41.49c-1.54-.42-2.01-.59-2.01-1.21,0-.4.55-.68,1.34-.69.97,0,2.16.37,3.2,1.01l1.3-2.3c-1.26-.84-2.87-1.41-4.5-1.4-2.69,0-4.47,1.55-4.45,3.71.03,2.25,1.84,2.88,4.17,3.45,1.17.31,2.01.53,2.01,1.23,0,.51-.62.86-1.48.86-1.52,0-2.8-.55-3.82-1.27l-1.38,2.23c1.37,1.1,3.31,1.71,5.14,1.71,2.8,0,4.63-1.44,4.62-3.69,0-2.49-2.19-3.15-4.15-3.65ZM76.34,48.6h3.22s-.03-15.42-.03-15.42h-3.22s.03,15.42.03,15.42ZM68.61,36.95c-3.39,0-6.23,2.72-6.23,5.96,0,3.24,2.85,5.97,6.25,5.96s6.19-2.74,6.18-5.99c0-3.24-2.83-5.95-6.21-5.94ZM68.62,46.16c-1.72,0-3.16-1.49-3.16-3.26s1.43-3.24,3.15-3.25,3.13,1.47,3.14,3.23-1.43,3.27-3.12,3.27ZM55.84,36.97c-1.59,0-2.91.69-3.81,1.86v-1.59s-3.22,0-3.22,0l.03,15.19h3.22s-.01-5.41-.01-5.41c.91,1.19,2.23,1.87,3.82,1.87,3.04,0,5.24-2.48,5.24-5.98,0-3.48-2.22-5.95-5.26-5.94ZM54.93,46.19c-1.57,0-2.71-1.14-2.89-2.82v-.88c.17-1.65,1.32-2.8,2.88-2.8,1.79,0,3.04,1.34,3.05,3.23,0,1.92-1.25,3.27-3.04,3.27ZM12.42,40.19c.64,0,1.24.22,1.71.58l2.52-1.95c-1.08-1.09-2.58-1.76-4.24-1.76-2.91,0-5.32,2.09-5.84,4.84l3.08.6c.25-1.31,1.39-2.3,2.77-2.3ZM12.43,45.85c-1.38,0-2.52-.98-2.78-2.28l-3.08.6c.53,2.75,2.96,4.82,5.86,4.82,1.66,0,3.15-.68,4.23-1.78l-2.53-1.94c-.47.36-1.07.58-1.71.58Z" style="fill: #fff;"/>
  </g>
  <g>
    <path d="M12.42,27.41c-1.76-.98-3.14-2.33-4.16-4.06-1.01-1.73-1.52-3.67-1.52-5.82s.51-4.09,1.52-5.82c1.01-1.73,2.4-3.08,4.16-4.06,1.76-.98,3.73-1.47,5.93-1.47,1.62,0,3.11.26,4.48.78s2.53,1.29,3.48,2.32l-1.02,1.05c-1.79-1.77-4.08-2.65-6.87-2.65-1.88,0-3.58.43-5.12,1.28-1.53.85-2.74,2.03-3.61,3.53-.88,1.5-1.31,3.18-1.31,5.03s.44,3.53,1.31,5.03c.87,1.5,2.08,2.68,3.61,3.53s3.24,1.28,5.12,1.28c2.77,0,5.06-.9,6.87-2.69l1.02,1.06c-.96,1.02-2.13,1.8-3.5,2.33-1.37.53-2.86.8-4.46.8-2.2,0-4.17-.49-5.93-1.47Z" style="fill: url(#linear-gradient);"/>
    <path d="M33.25,6.34h2.37v20.33h12.53v2.05h-14.9V6.34Z" style="fill: url(#linear-gradient-2);"/>
    <path d="M53.81,26.42c-1.66-1.71-2.49-4.16-2.49-7.35V6.34h3.2v12.6c0,4.79,2.1,7.19,6.3,7.19,2.05,0,3.61-.59,4.7-1.77,1.09-1.18,1.63-2.99,1.63-5.42V6.34h3.1v12.72c0,3.22-.83,5.67-2.49,7.37-1.66,1.69-3.99,2.54-6.97,2.54s-5.31-.85-6.97-2.56Z" style="fill: url(#linear-gradient-3);"/>
    <path d="M95.49,19.11c.73.95,1.09,2.12,1.09,3.5,0,1.96-.76,3.47-2.29,4.52-1.52,1.05-3.75,1.58-6.67,1.58h-11.57V6.34h10.93c2.73,0,4.82.52,6.28,1.57,1.46,1.04,2.19,2.46,2.19,4.25,0,1.09-.26,2.06-.78,2.91-.52.85-1.25,1.52-2.19,2.01,1.28.4,2.28,1.08,3,2.03ZM81.21,10.24v5.28h5.15c1.28,0,2.25-.22,2.91-.67.66-.45.99-1.11.99-1.98s-.33-1.53-.99-1.97c-.66-.44-1.63-.66-2.91-.66h-5.15ZM90.33,24.15c.69-.45,1.04-1.14,1.04-2.08,0-1.85-1.37-2.78-4.12-2.78h-6.04v5.53h6.04c1.36,0,2.39-.22,3.08-.67Z" style="fill: url(#linear-gradient-4);"/>
  </g>
</svg>